<svg width="51" height="63" viewBox="0 0 51 63" fill="none" xmlns="http://www.w3.org/2000/svg">
<path d="M16.5 0.950354H18.7142V3.16455H16.5V0.950354Z" fill="#0E054B"/>
<path d="M18.7139 0.950354H20.9281V3.16455H18.7139V0.950354Z" fill="#0E054B"/>
<path d="M20.9287 0.950354H23.1432V3.16455H20.9287V0.950354Z" fill="#0E054B"/>
<path d="M23.1426 0.950354H25.3568V3.16455H23.1426V0.950354Z" fill="#0E054B"/>
<path d="M25.3574 0.950354H27.5716V3.16455H25.3574V0.950354Z" fill="#0E054B"/>
<path d="M27.5723 0.950354H29.7867V3.16455H27.5723V0.950354Z" fill="#0E054B"/>
<path d="M29.7861 0.950354H32.0003V3.16455H29.7861V0.950354Z" fill="#0E054B"/>
<path d="M32 0.950354H34.2142V3.16455H32V0.950354Z" fill="#0E054B"/>
<path d="M14.2861 3.16443H16.5006V5.37891H14.2861V3.16443Z" fill="#0E054B"/>
<path d="M16.5 3.16443H18.7142V5.37891H16.5V3.16443Z" fill="#91A7FF"/>
<path d="M18.7139 3.16443H20.9281V5.37891H18.7139V3.16443Z" fill="#91A7FF"/>
<path d="M20.9287 3.16443H23.1432V5.37891H20.9287V3.16443Z" fill="#91A7FF"/>
<path d="M23.1426 3.16443H25.3568V5.37891H23.1426V3.16443Z" fill="#91A7FF"/>
<path d="M25.3574 3.16443H27.5716V5.37891H25.3574V3.16443Z" fill="#91A7FF"/>
<path d="M27.5723 3.16443H29.7867V5.37891H27.5723V3.16443Z" fill="#91A7FF"/>
<path d="M29.7861 3.16443H32.0003V5.37891H29.7861V3.16443Z" fill="#91A7FF"/>
<path d="M32 3.16443H34.2142V5.37891H32V3.16443Z" fill="#91A7FF"/>
<path d="M34.2139 3.16443H36.4283V5.37891H34.2139V3.16443Z" fill="#0E054B"/>
<path d="M12.0713 5.37906H14.2855V7.59326H12.0713V5.37906Z" fill="#0E054B"/>
<path d="M14.2861 5.37906H16.5006V7.59326H14.2861V5.37906Z" fill="#91A7FF"/>
<path d="M16.5 5.37906H18.7142V7.59326H16.5V5.37906Z" fill="#5677FC"/>
<path d="M18.7139 5.37906H20.9281V7.59326H18.7139V5.37906Z" fill="#5677FC"/>
<path d="M20.9287 5.37906H23.1432V7.59326H20.9287V5.37906Z" fill="#5677FC"/>
<path d="M23.1426 5.37906H25.3568V7.59326H23.1426V5.37906Z" fill="#0E054B"/>
<path d="M25.3574 5.37906H27.5716V7.59326H25.3574V5.37906Z" fill="#0E054B"/>
<path d="M27.5723 5.37906H29.7867V7.59326H27.5723V5.37906Z" fill="#5677FC"/>
<path d="M29.7861 5.37906H32.0003V7.59326H29.7861V5.37906Z" fill="#5677FC"/>
<path d="M32 5.37906H34.2142V7.59326H32V5.37906Z" fill="#5677FC"/>
<path d="M34.2139 5.37906H36.4283V7.59326H34.2139V5.37906Z" fill="#91A7FF"/>
<path d="M36.4287 5.37906H38.6429V7.59326H36.4287V5.37906Z" fill="#0E054B"/>
<path d="M12.0713 7.59293H14.2855V9.80713H12.0713V7.59293Z" fill="#0E054B"/>
<path d="M14.2861 7.59293H16.5006V9.80713H14.2861V7.59293Z" fill="#5677FC"/>
<path d="M16.5 7.59293H18.7142V9.80713H16.5V7.59293Z" fill="#5677FC"/>
<path d="M18.7139 7.59293H20.9281V9.80713H18.7139V7.59293Z" fill="#5677FC"/>
<path d="M20.9287 7.59293H23.1432V9.80713H20.9287V7.59293Z" fill="#0E054B"/>
<path d="M23.1426 7.59293H25.3568V9.80713H23.1426V7.59293Z" fill="#0E054B"/>
<path d="M25.3574 7.59293H27.5716V9.80713H25.3574V7.59293Z" fill="#0E054B"/>
<path d="M27.5723 7.59293H29.7867V9.80713H27.5723V7.59293Z" fill="#0E054B"/>
<path d="M29.7861 7.59293H32.0003V9.80713H29.7861V7.59293Z" fill="#5677FC"/>
<path d="M32 7.59293H34.2142V9.80713H32V7.59293Z" fill="#5677FC"/>
<path d="M34.2139 7.59293H36.4283V9.80713H34.2139V7.59293Z" fill="#5677FC"/>
<path d="M36.4287 7.59293H38.6429V9.80713H36.4287V7.59293Z" fill="#0E054B"/>
<path d="M12.0713 9.80726H14.2855V12.0217H12.0713V9.80726Z" fill="#0E054B"/>
<path d="M14.2861 9.80726H16.5006V12.0217H14.2861V9.80726Z" fill="#455EDE"/>
<path d="M16.5 9.80726H18.7142V12.0217H16.5V9.80726Z" fill="#455EDE"/>
<path d="M18.7139 9.80726H20.9281V12.0217H18.7139V9.80726Z" fill="#455EDE"/>
<path d="M20.9287 9.80726H23.1432V12.0217H20.9287V9.80726Z" fill="#455EDE"/>
<path d="M23.1426 9.80726H25.3568V12.0217H23.1426V9.80726Z" fill="#455EDE"/>
<path d="M25.3574 9.80726H27.5716V12.0217H25.3574V9.80726Z" fill="#455EDE"/>
<path d="M27.5723 9.80725H29.7867V12.0217H27.5723V9.80725Z" fill="#455EDE"/>
<path d="M29.7861 9.80726H32.0003V12.0217H29.7861V9.80726Z" fill="#455EDE"/>
<path d="M32 9.80726H34.2142V12.0217H32V9.80726Z" fill="#455EDE"/>
<path d="M34.2139 9.80726H36.4283V12.0217H34.2139V9.80726Z" fill="#455EDE"/>
<path d="M36.4287 9.80726H38.6429V12.0217H36.4287V9.80726Z" fill="#0E054B"/>
<path d="M12.0713 12.0216H14.2855V14.2358H12.0713V12.0216Z" fill="#0E054B"/>
<path d="M14.2861 12.0216H16.5006V14.2358H14.2861V12.0216Z" fill="#0E054B"/>
<path d="M16.5 12.0216H18.7142V14.2358H16.5V12.0216Z" fill="#0E054B"/>
<path d="M18.7139 12.0216H20.9281V14.2358H18.7139V12.0216Z" fill="#0E054B"/>
<path d="M20.9287 12.0216H23.1432V14.2358H20.9287V12.0216Z" fill="#0E054B"/>
<path d="M23.1426 12.0216H25.3568V14.2358H23.1426V12.0216Z" fill="#0E054B"/>
<path d="M25.3574 12.0216H27.5716V14.2358H25.3574V12.0216Z" fill="#0E054B"/>
<path d="M27.5723 12.0216H29.7867V14.2358H27.5723V12.0216Z" fill="#0E054B"/>
<path d="M29.7861 12.0216H32.0003V14.2358H29.7861V12.0216Z" fill="#0E054B"/>
<path d="M32 12.0216H34.2142V14.2358H32V12.0216Z" fill="#0E054B"/>
<path d="M34.2139 12.0216H36.4283V14.2358H34.2139V12.0216Z" fill="#0E054B"/>
<path d="M36.4287 12.0216H38.6429V14.2358H36.4287V12.0216Z" fill="#0E054B"/>
<path d="M12.0713 14.236H14.2855V16.4502H12.0713V14.236Z" fill="#0E054B"/>
<path d="M14.2861 14.236H16.5006V16.4502H14.2861V14.236Z" fill="#FF5722"/>
<path d="M16.5 14.236H18.7142V16.4502H16.5V14.236Z" fill="#FF5722"/>
<path d="M18.7139 14.236H20.9281V16.4502H18.7139V14.236Z" fill="#FF5722"/>
<path d="M20.9287 14.236H23.1432V16.4502H20.9287V14.236Z" fill="#FF5722"/>
<path d="M23.1426 14.236H25.3568V16.4502H23.1426V14.236Z" fill="#FF5722"/>
<path d="M25.3574 14.236H27.5716V16.4502H25.3574V14.236Z" fill="#FF5722"/>
<path d="M27.5723 14.236H29.7867V16.4502H27.5723V14.236Z" fill="#FF5722"/>
<path d="M29.7861 14.236H32.0003V16.4502H29.7861V14.236Z" fill="#FF5722"/>
<path d="M32 14.236H34.2142V16.4502H32V14.236Z" fill="#FF5722"/>
<path d="M34.2139 14.236H36.4283V16.4502H34.2139V14.236Z" fill="#FF5722"/>
<path d="M36.4287 14.236H38.6429V16.4502H36.4287V14.236Z" fill="#0E054B"/>
<path d="M9.85742 16.4503H12.0716V18.6648H9.85742V16.4503Z" fill="#0E054B"/>
<path d="M12.0713 16.4503H14.2855V18.6648H12.0713V16.4503Z" fill="#FFCA28"/>
<path d="M14.2861 16.4503H16.5006V18.6648H14.2861V16.4503Z" fill="#FFCA28"/>
<path d="M16.5 16.4503H18.7142V18.6648H16.5V16.4503Z" fill="#FFCA28"/>
<path d="M18.7139 16.4503H20.9281V18.6648H18.7139V16.4503Z" fill="#0E054B"/>
<path d="M20.9287 16.4503H23.1432V18.6648H20.9287V16.4503Z" fill="#0E054B"/>
<path d="M23.1426 16.4503H25.3568V18.6648H23.1426V16.4503Z" fill="#FFCA28"/>
<path d="M25.3574 16.4503H27.5716V18.6648H25.3574V16.4503Z" fill="#FFCA28"/>
<path d="M27.5723 16.4503H29.7867V18.6648H27.5723V16.4503Z" fill="#0E054B"/>
<path d="M29.7861 16.4503H32.0003V18.6648H29.7861V16.4503Z" fill="#0E054B"/>
<path d="M32 16.4503H34.2142V18.6648H32V16.4503Z" fill="#FFCA28"/>
<path d="M34.2139 16.4503H36.4283V18.6648H34.2139V16.4503Z" fill="#FFCA28"/>
<path d="M36.4287 16.4503H38.6429V18.6648H36.4287V16.4503Z" fill="#FFCA28"/>
<path d="M38.6426 16.4503H40.8568V18.6648H38.6426V16.4503Z" fill="#0E054B"/>
<path d="M9.85742 18.6645H12.0716V20.8787H9.85742V18.6645Z" fill="#0E054B"/>
<path d="M12.0713 18.6645H14.2855V20.8787H12.0713V18.6645Z" fill="#FFCA28"/>
<path d="M14.2861 18.6645H16.5006V20.8787H14.2861V18.6645Z" fill="#FFCA28"/>
<path d="M16.5 18.6645H18.7142V20.8787H16.5V18.6645Z" fill="#FFCA28"/>
<path d="M18.7139 18.6645H20.9281V20.8787H18.7139V18.6645Z" fill="#0E054B"/>
<path d="M20.9287 18.6645H23.1432V20.8787H20.9287V18.6645Z" fill="#0E054B"/>
<path d="M23.1426 18.6645H25.3568V20.8787H23.1426V18.6645Z" fill="#FFCA28"/>
<path d="M25.3574 18.6645H27.5716V20.8787H25.3574V18.6645Z" fill="#FFCA28"/>
<path d="M27.5723 18.6645H29.7867V20.8787H27.5723V18.6645Z" fill="#0E054B"/>
<path d="M29.7861 18.6645H32.0003V20.8787H29.7861V18.6645Z" fill="#0E054B"/>
<path d="M32 18.6645H34.2142V20.8787H32V18.6645Z" fill="#FFCA28"/>
<path d="M34.2139 18.6645H36.4283V20.8787H34.2139V18.6645Z" fill="#FFCA28"/>
<path d="M36.4287 18.6645H38.6429V20.8787H36.4287V18.6645Z" fill="#FFCA28"/>
<path d="M38.6426 18.6645H40.8568V20.8787H38.6426V18.6645Z" fill="#0E054B"/>
<path d="M9.85742 20.8788H12.0716V23.093H9.85742V20.8788Z" fill="#0E054B"/>
<path d="M12.0713 20.8788H14.2855V23.093H12.0713V20.8788Z" fill="#FFCA28"/>
<path d="M14.2861 20.8788H16.5006V23.093H14.2861V20.8788Z" fill="#FFCA28"/>
<path d="M16.5 20.8788H18.7142V23.093H16.5V20.8788Z" fill="#FFCA28"/>
<path d="M18.7139 20.8788H20.9281V23.093H18.7139V20.8788Z" fill="#FFCA28"/>
<path d="M20.9287 20.8788H23.1432V23.093H20.9287V20.8788Z" fill="#FFCA28"/>
<path d="M23.1426 20.8788H25.3568V23.093H23.1426V20.8788Z" fill="#0E054B"/>
<path d="M25.3574 20.8788H27.5716V23.093H25.3574V20.8788Z" fill="#0E054B"/>
<path d="M27.5723 20.8788H29.7867V23.093H27.5723V20.8788Z" fill="#FFCA28"/>
<path d="M29.7861 20.8788H32.0003V23.093H29.7861V20.8788Z" fill="#FFCA28"/>
<path d="M32 20.8788H34.2142V23.093H32V20.8788Z" fill="#FFCA28"/>
<path d="M34.2139 20.8788H36.4283V23.093H34.2139V20.8788Z" fill="#FFCA28"/>
<path d="M36.4287 20.8788H38.6429V23.093H36.4287V20.8788Z" fill="#FFCA28"/>
<path d="M38.6426 20.8788H40.8568V23.093H38.6426V20.8788Z" fill="#0E054B"/>
<path d="M9.85742 23.0929H12.0716V25.3074H9.85742V23.0929Z" fill="#0E054B"/>
<path d="M12.0713 23.0929H14.2855V25.3074H12.0713V23.0929Z" fill="#FFCA28"/>
<path d="M14.2861 23.0929H16.5006V25.3074H14.2861V23.0929Z" fill="#FFCA28"/>
<path d="M16.5 23.0929H18.7142V25.3074H16.5V23.0929Z" fill="#FFCA28"/>
<path d="M18.7139 23.0929H20.9281V25.3074H18.7139V23.0929Z" fill="#FFCA28"/>
<path d="M20.9287 23.0929H23.1432V25.3074H20.9287V23.0929Z" fill="#0E054B"/>
<path d="M23.1426 23.0929H25.3568V25.3074H23.1426V23.0929Z" fill="#FCB961"/>
<path d="M25.3574 23.0929H27.5716V25.3074H25.3574V23.0929Z" fill="#F57C00"/>
<path d="M27.5723 23.0929H29.7867V25.3074H27.5723V23.0929Z" fill="#0E054B"/>
<path d="M29.7861 23.0929H32.0003V25.3074H29.7861V23.0929Z" fill="#FFCA28"/>
<path d="M32 23.0929H34.2142V25.3074H32V23.0929Z" fill="#FFCA28"/>
<path d="M34.2139 23.0929H36.4283V25.3074H34.2139V23.0929Z" fill="#FFCA28"/>
<path d="M36.4287 23.0929H38.6429V25.3074H36.4287V23.0929Z" fill="#FFCA28"/>
<path d="M38.6426 23.0929H40.8568V25.3074H38.6426V23.0929Z" fill="#0E054B"/>
<path d="M12.0713 25.3075H14.2855V27.5217H12.0713V25.3075Z" fill="#0E054B"/>
<path d="M14.2861 25.3075H16.5006V27.5217H14.2861V25.3075Z" fill="#FFCA28"/>
<path d="M16.5 25.3075H18.7142V27.5217H16.5V25.3075Z" fill="#FFCA28"/>
<path d="M18.7139 25.3075H20.9281V27.5217H18.7139V25.3075Z" fill="#FFCA28"/>
<path d="M20.9287 25.3075H23.1432V27.5217H20.9287V25.3075Z" fill="#FFCA28"/>
<path d="M23.1426 25.3075H25.3568V27.5217H23.1426V25.3075Z" fill="#0E054B"/>
<path d="M25.3574 25.3075H27.5716V27.5217H25.3574V25.3075Z" fill="#0E054B"/>
<path d="M27.5723 25.3075H29.7867V27.5217H27.5723V25.3075Z" fill="#FFCA28"/>
<path d="M29.7861 25.3075H32.0003V27.5217H29.7861V25.3075Z" fill="#FFCA28"/>
<path d="M32 25.3075H34.2142V27.5217H32V25.3075Z" fill="#FFCA28"/>
<path d="M34.2139 25.3075H36.4283V27.5217H34.2139V25.3075Z" fill="#FFCA28"/>
<path d="M36.4287 25.3075H38.6429V27.5217H36.4287V25.3075Z" fill="#0E054B"/>
<path d="M7.64258 27.5216H9.85706V29.7358H7.64258V27.5216Z" fill="#0E054B"/>
<path d="M9.85742 27.5216H12.0716V29.7358H9.85742V27.5216Z" fill="#0E054B"/>
<path d="M12.0713 27.5216H14.2855V29.7358H12.0713V27.5216Z" fill="#FFCA28"/>
<path d="M14.2861 27.5216H16.5006V29.7358H14.2861V27.5216Z" fill="#FFCA28"/>
<path d="M16.5 27.5216H18.7142V29.7358H16.5V27.5216Z" fill="#FFCA28"/>
<path d="M18.7139 27.5216H20.9281V29.7358H18.7139V27.5216Z" fill="#FFCA28"/>
<path d="M20.9287 27.5216H23.1432V29.7358H20.9287V27.5216Z" fill="#FFCA28"/>
<path d="M23.1426 27.5216H25.3568V29.7358H23.1426V27.5216Z" fill="#FFCA28"/>
<path d="M25.3574 27.5216H27.5716V29.7358H25.3574V27.5216Z" fill="#FFCA28"/>
<path d="M27.5723 27.5216H29.7867V29.7358H27.5723V27.5216Z" fill="#FFCA28"/>
<path d="M29.7861 27.5216H32.0003V29.7358H29.7861V27.5216Z" fill="#FFCA28"/>
<path d="M32 27.5216H34.2142V29.7358H32V27.5216Z" fill="#FFCA28"/>
<path d="M34.2139 27.5216H36.4283V29.7358H34.2139V27.5216Z" fill="#FFCA28"/>
<path d="M36.4287 27.5216H38.6429V29.7358H36.4287V27.5216Z" fill="#FFCA28"/>
<path d="M38.6426 27.5216H40.8568V29.7358H38.6426V27.5216Z" fill="#0E054B"/>
<path d="M40.8574 27.5216H43.0719V29.7358H40.8574V27.5216Z" fill="#0E054B"/>
<path d="M5.42871 29.7357H7.64291V31.9502H5.42871V29.7357Z" fill="#0E054B"/>
<path d="M7.64258 29.7357H9.85706V31.9502H7.64258V29.7357Z" fill="#FFF59D"/>
<path d="M9.85742 29.7357H12.0716V31.9502H9.85742V29.7357Z" fill="#FFCA28"/>
<path d="M12.0713 29.7357H14.2855V31.9502H12.0713V29.7357Z" fill="#FFCA28"/>
<path d="M14.2861 29.7357H16.5006V31.9502H14.2861V29.7357Z" fill="#FFCA28"/>
<path d="M16.5 29.7357H18.7142V31.9502H16.5V29.7357Z" fill="#FFCA28"/>
<path d="M18.7139 29.7357H20.9281V31.9502H18.7139V29.7357Z" fill="#FFCA28"/>
<path d="M20.9287 29.7357H23.1432V31.9502H20.9287V29.7357Z" fill="#FFCA28"/>
<path d="M23.1426 29.7357H25.3568V31.9502H23.1426V29.7357Z" fill="#FFCA28"/>
<path d="M25.3574 29.7357H27.5716V31.9502H25.3574V29.7357Z" fill="#FFCA28"/>
<path d="M27.5723 29.7357H29.7867V31.9502H27.5723V29.7357Z" fill="#FFCA28"/>
<path d="M29.7861 29.7357H32.0003V31.9502H29.7861V29.7357Z" fill="#FFCA28"/>
<path d="M32 29.7357H34.2142V31.9502H32V29.7357Z" fill="#FFCA28"/>
<path d="M34.2139 29.7357H36.4283V31.9502H34.2139V29.7357Z" fill="#FFCA28"/>
<path d="M36.4287 29.7357H38.6429V31.9502H36.4287V29.7357Z" fill="#FFCA28"/>
<path d="M38.6426 29.7357H40.8568V31.9502H38.6426V29.7357Z" fill="#FFCA28"/>
<path d="M40.8574 29.7357H43.0719V31.9502H40.8574V29.7357Z" fill="#FFF59D"/>
<path d="M43.0723 29.7357H45.2865V31.9502H43.0723V29.7357Z" fill="#0E054B"/>
<path d="M3.21484 31.9504H5.42904V34.1646H3.21484V31.9504Z" fill="#0E054B"/>
<path d="M5.42871 31.9504H7.64291V34.1646H5.42871V31.9504Z" fill="#FFF59D"/>
<path d="M7.64258 31.9504H9.85706V34.1646H7.64258V31.9504Z" fill="#FFCA28"/>
<path d="M9.85742 31.9504H12.0716V34.1646H9.85742V31.9504Z" fill="#FFCA28"/>
<path d="M12.0713 31.9504H14.2855V34.1646H12.0713V31.9504Z" fill="#FFCA28"/>
<path d="M14.2861 31.9504H16.5006V34.1646H14.2861V31.9504Z" fill="#FFCA28"/>
<path d="M16.5 31.9504H18.7142V34.1646H16.5V31.9504Z" fill="#FFCA28"/>
<path d="M18.7139 31.9504H20.9281V34.1646H18.7139V31.9504Z" fill="#FFCA28"/>
<path d="M20.9287 31.9504H23.1432V34.1646H20.9287V31.9504Z" fill="#FF7043"/>
<path d="M23.1426 31.9504H25.3568V34.1646H23.1426V31.9504Z" fill="#FFCA28"/>
<path d="M25.3574 31.9504H27.5716V34.1646H25.3574V31.9504Z" fill="#FFCA28"/>
<path d="M27.5723 31.9504H29.7867V34.1646H27.5723V31.9504Z" fill="#FF7043"/>
<path d="M29.7861 31.9504H32.0003V34.1646H29.7861V31.9504Z" fill="#FFCA28"/>
<path d="M32 31.9504H34.2142V34.1646H32V31.9504Z" fill="#FFCA28"/>
<path d="M34.2139 31.9504H36.4283V34.1646H34.2139V31.9504Z" fill="#FFCA28"/>
<path d="M36.4287 31.9504H38.6429V34.1646H36.4287V31.9504Z" fill="#FFCA28"/>
<path d="M38.6426 31.9504H40.8568V34.1646H38.6426V31.9504Z" fill="#FFCA28"/>
<path d="M40.8574 31.9504H43.0719V34.1646H40.8574V31.9504Z" fill="#FFCA28"/>
<path d="M43.0723 31.9504H45.2865V34.1646H43.0723V31.9504Z" fill="#FFF59D"/>
<path d="M45.2861 31.9504H47.5003V34.1646H45.2861V31.9504Z" fill="#0E054B"/>
<path d="M3.21484 34.1645H5.42904V36.3787H3.21484V34.1645Z" fill="#0E054B"/>
<path d="M5.42871 34.1645H7.64291V36.3787H5.42871V34.1645Z" fill="#FFF59D"/>
<path d="M7.64258 34.1645H9.85706V36.3787H7.64258V34.1645Z" fill="#FFCA28"/>
<path d="M9.85742 34.1645H12.0716V36.3787H9.85742V34.1645Z" fill="#FFCA28"/>
<path d="M12.0713 34.1645H14.2855V36.3787H12.0713V34.1645Z" fill="#FFCA28"/>
<path d="M14.2861 34.1645H16.5006V36.3787H14.2861V34.1645Z" fill="#FFCA28"/>
<path d="M16.5 34.1645H18.7142V36.3787H16.5V34.1645Z" fill="#FFCA28"/>
<path d="M18.7139 34.1645H20.9281V36.3787H18.7139V34.1645Z" fill="#FFCA28"/>
<path d="M20.9287 34.1645H23.1432V36.3787H20.9287V34.1645Z" fill="#FFCA28"/>
<path d="M23.1426 34.1645H25.3568V36.3787H23.1426V34.1645Z" fill="#FF7043"/>
<path d="M25.3574 34.1645H27.5716V36.3787H25.3574V34.1645Z" fill="#FF7043"/>
<path d="M27.5723 34.1645H29.7867V36.3787H27.5723V34.1645Z" fill="#FFCA28"/>
<path d="M29.7861 34.1645H32.0003V36.3787H29.7861V34.1645Z" fill="#FFCA28"/>
<path d="M32 34.1645H34.2142V36.3787H32V34.1645Z" fill="#FFCA28"/>
<path d="M34.2139 34.1645H36.4283V36.3787H34.2139V34.1645Z" fill="#FFCA28"/>
<path d="M36.4287 34.1645H38.6429V36.3787H36.4287V34.1645Z" fill="#FFCA28"/>
<path d="M38.6426 34.1645H40.8568V36.3787H38.6426V34.1645Z" fill="#FFCA28"/>
<path d="M40.8574 34.1645H43.0719V36.3787H40.8574V34.1645Z" fill="#FFCA28"/>
<path d="M43.0723 34.1645H45.2865V36.3787H43.0723V34.1645Z" fill="#FFF59D"/>
<path d="M45.2861 34.1645H47.5003V36.3787H45.2861V34.1645Z" fill="#0E054B"/>
<path d="M1 36.3788H3.21448V38.5933H1V36.3788Z" fill="#0E054B"/>
<path d="M3.21484 36.3788H5.42904V38.5933H3.21484V36.3788Z" fill="#FFF59D"/>
<path d="M5.42871 36.3788H7.64291V38.5933H5.42871V36.3788Z" fill="#FFCA28"/>
<path d="M7.64258 36.3788H9.85706V38.5933H7.64258V36.3788Z" fill="#FFCA28"/>
<path d="M9.85742 36.3788H12.0716V38.5933H9.85742V36.3788Z" fill="#0E054B"/>
<path d="M12.0713 36.3788H14.2855V38.5933H12.0713V36.3788Z" fill="#FFCA28"/>
<path d="M14.2861 36.3788H16.5006V38.5933H14.2861V36.3788Z" fill="#FF7043"/>
<path d="M16.5 36.3788H18.7142V38.5933H16.5V36.3788Z" fill="#FFCA28"/>
<path d="M18.7139 36.3788H20.9281V38.5933H18.7139V36.3788Z" fill="#FFCA28"/>
<path d="M20.9287 36.3788H23.1432V38.5933H20.9287V36.3788Z" fill="#FFCA28"/>
<path d="M23.1426 36.3788H25.3568V38.5933H23.1426V36.3788Z" fill="#FFCA28"/>
<path d="M25.3574 36.3788H27.5716V38.5933H25.3574V36.3788Z" fill="#FFCA28"/>
<path d="M27.5723 36.3788H29.7867V38.5933H27.5723V36.3788Z" fill="#FFCA28"/>
<path d="M29.7861 36.3788H32.0003V38.5933H29.7861V36.3788Z" fill="#FFCA28"/>
<path d="M32 36.3788H34.2142V38.5933H32V36.3788Z" fill="#FFCA28"/>
<path d="M34.2139 36.3788H36.4283V38.5933H34.2139V36.3788Z" fill="#FF7043"/>
<path d="M36.4287 36.3788H38.6429V38.5933H36.4287V36.3788Z" fill="#FFCA28"/>
<path d="M38.6426 36.3788H40.8568V38.5933H38.6426V36.3788Z" fill="#0E054B"/>
<path d="M40.8574 36.3788H43.0719V38.5933H40.8574V36.3788Z" fill="#FFCA28"/>
<path d="M43.0723 36.3788H45.2865V38.5933H43.0723V36.3788Z" fill="#FFCA28"/>
<path d="M45.2861 36.3788H47.5003V38.5933H45.2861V36.3788Z" fill="#FFF59D"/>
<path d="M47.5 36.3788H49.7145V38.5933H47.5V36.3788Z" fill="#0E054B"/>
<path d="M1 38.5932H3.21448V40.8074H1V38.5932Z" fill="#0E054B"/>
<path d="M3.21484 38.5932H5.42904V40.8074H3.21484V38.5932Z" fill="#FFF59D"/>
<path d="M5.42871 38.5932H7.64291V40.8074H5.42871V38.5932Z" fill="#FFCA28"/>
<path d="M7.64258 38.5932H9.85706V40.8074H7.64258V38.5932Z" fill="#FFCA28"/>
<path d="M9.85742 38.5932H12.0716V40.8074H9.85742V38.5932Z" fill="#FFCA28"/>
<path d="M12.0713 38.5932H14.2855V40.8074H12.0713V38.5932Z" fill="#0E054B"/>
<path d="M14.2861 38.5932H16.5006V40.8074H14.2861V38.5932Z" fill="#FFCA28"/>
<path d="M16.5 38.5932H18.7142V40.8074H16.5V38.5932Z" fill="#FF7043"/>
<path d="M18.7139 38.5932H20.9281V40.8074H18.7139V38.5932Z" fill="#FF7043"/>
<path d="M20.9287 38.5932H23.1432V40.8074H20.9287V38.5932Z" fill="#FFCA28"/>
<path d="M23.1426 38.5932H25.3568V40.8074H23.1426V38.5932Z" fill="#FFCA28"/>
<path d="M25.3574 38.5932H27.5716V40.8074H25.3574V38.5932Z" fill="#FFCA28"/>
<path d="M27.5723 38.5932H29.7867V40.8074H27.5723V38.5932Z" fill="#FFCA28"/>
<path d="M29.7861 38.5932H32.0003V40.8074H29.7861V38.5932Z" fill="#FF7043"/>
<path d="M32 38.5932H34.2142V40.8074H32V38.5932Z" fill="#FF7043"/>
<path d="M34.2139 38.5932H36.4283V40.8074H34.2139V38.5932Z" fill="#FFCA28"/>
<path d="M36.4287 38.5932H38.6429V40.8074H36.4287V38.5932Z" fill="#0E054B"/>
<path d="M38.6426 38.5932H40.8568V40.8074H38.6426V38.5932Z" fill="#FFCA28"/>
<path d="M40.8574 38.5932H43.0719V40.8074H40.8574V38.5932Z" fill="#FFCA28"/>
<path d="M43.0723 38.5932H45.2865V40.8074H43.0723V38.5932Z" fill="#FFCA28"/>
<path d="M45.2861 38.5932H47.5003V40.8074H45.2861V38.5932Z" fill="#FFF59D"/>
<path d="M47.5 38.5932H49.7145V40.8074H47.5V38.5932Z" fill="#0E054B"/>
<path d="M1 40.8075H3.21448V43.0217H1V40.8075Z" fill="#0E054B"/>
<path d="M3.21484 40.8075H5.42904V43.0217H3.21484V40.8075Z" fill="#FFCA28"/>
<path d="M5.42871 40.8075H7.64291V43.0217H5.42871V40.8075Z" fill="#FFCA28"/>
<path d="M7.64258 40.8075H9.85706V43.0217H7.64258V40.8075Z" fill="#FFCA28"/>
<path d="M9.85742 40.8075H12.0716V43.0217H9.85742V40.8075Z" fill="#FFCA28"/>
<path d="M12.0713 40.8075H14.2855V43.0217H12.0713V40.8075Z" fill="#0E054B"/>
<path d="M14.2861 40.8075H16.5006V43.0217H14.2861V40.8075Z" fill="#FFCA28"/>
<path d="M16.5 40.8075H18.7142V43.0217H16.5V40.8075Z" fill="#FFCA28"/>
<path d="M18.7139 40.8075H20.9281V43.0217H18.7139V40.8075Z" fill="#FFCA28"/>
<path d="M20.9287 40.8075H23.1432V43.0217H20.9287V40.8075Z" fill="#FFCA28"/>
<path d="M23.1426 40.8075H25.3568V43.0217H23.1426V40.8075Z" fill="#FFCA28"/>
<path d="M25.3574 40.8075H27.5716V43.0217H25.3574V40.8075Z" fill="#FFCA28"/>
<path d="M27.5723 40.8075H29.7867V43.0217H27.5723V40.8075Z" fill="#FFCA28"/>
<path d="M29.7861 40.8075H32.0003V43.0217H29.7861V40.8075Z" fill="#FFCA28"/>
<path d="M32 40.8075H34.2142V43.0217H32V40.8075Z" fill="#FFCA28"/>
<path d="M34.2139 40.8075H36.4283V43.0217H34.2139V40.8075Z" fill="#FFCA28"/>
<path d="M36.4287 40.8075H38.6429V43.0217H36.4287V40.8075Z" fill="#0E054B"/>
<path d="M38.6426 40.8075H40.8568V43.0217H38.6426V40.8075Z" fill="#FFCA28"/>
<path d="M40.8574 40.8075H43.0719V43.0217H40.8574V40.8075Z" fill="#FFCA28"/>
<path d="M43.0723 40.8075H45.2865V43.0217H43.0723V40.8075Z" fill="#FFCA28"/>
<path d="M45.2861 40.8075H47.5003V43.0217H45.2861V40.8075Z" fill="#FFCA28"/>
<path d="M47.5 40.8075H49.7145V43.0217H47.5V40.8075Z" fill="#0E054B"/>
<path d="M1 43.0216H3.21448V45.2361H1V43.0216Z" fill="#0E054B"/>
<path d="M3.21484 43.0216H5.42904V45.2361H3.21484V43.0216Z" fill="#FFCA28"/>
<path d="M5.42871 43.0216H7.64291V45.2361H5.42871V43.0216Z" fill="#FFCA28"/>
<path d="M7.64258 43.0216H9.85706V45.2361H7.64258V43.0216Z" fill="#FFCA28"/>
<path d="M9.85742 43.0216H12.0716V45.2361H9.85742V43.0216Z" fill="#FF5722"/>
<path d="M12.0713 43.0216H14.2855V45.2361H12.0713V43.0216Z" fill="#0E054B"/>
<path d="M14.2861 43.0216H16.5006V45.2361H14.2861V43.0216Z" fill="#FFCA28"/>
<path d="M16.5 43.0216H18.7142V45.2361H16.5V43.0216Z" fill="#FFCA28"/>
<path d="M18.7139 43.0216H20.9281V45.2361H18.7139V43.0216Z" fill="#FFCA28"/>
<path d="M20.9287 43.0216H23.1432V45.2361H20.9287V43.0216Z" fill="#FFCA28"/>
<path d="M23.1426 43.0216H25.3568V45.2361H23.1426V43.0216Z" fill="#FFCA28"/>
<path d="M25.3574 43.0216H27.5716V45.2361H25.3574V43.0216Z" fill="#FFCA28"/>
<path d="M27.5723 43.0216H29.7867V45.2361H27.5723V43.0216Z" fill="#FFCA28"/>
<path d="M29.7861 43.0216H32.0003V45.2361H29.7861V43.0216Z" fill="#FFCA28"/>
<path d="M32 43.0216H34.2142V45.2361H32V43.0216Z" fill="#FFCA28"/>
<path d="M34.2139 43.0216H36.4283V45.2361H34.2139V43.0216Z" fill="#FFCA28"/>
<path d="M36.4287 43.0216H38.6429V45.2361H36.4287V43.0216Z" fill="#0E054B"/>
<path d="M38.6426 43.0216H40.8568V45.2361H38.6426V43.0216Z" fill="#FF5722"/>
<path d="M40.8574 43.0216H43.0719V45.2361H40.8574V43.0216Z" fill="#FFCA28"/>
<path d="M43.0723 43.0216H45.2865V45.2361H43.0723V43.0216Z" fill="#FFCA28"/>
<path d="M45.2861 43.0216H47.5003V45.2361H45.2861V43.0216Z" fill="#FFCA28"/>
<path d="M47.5 43.0216H49.7145V45.2361H47.5V43.0216Z" fill="#0E054B"/>
<path d="M3.21484 45.236H5.42904V47.4502H3.21484V45.236Z" fill="#0E054B"/>
<path d="M5.42871 45.236H7.64291V47.4502H5.42871V45.236Z" fill="#FF5722"/>
<path d="M7.64258 45.236H9.85706V47.4502H7.64258V45.236Z" fill="#FF5722"/>
<path d="M9.85742 45.236H12.0716V47.4502H9.85742V45.236Z" fill="#0E054B"/>
<path d="M12.0713 45.236H14.2855V47.4502H12.0713V45.236Z" fill="#FF5722"/>
<path d="M14.2861 45.236H16.5006V47.4502H14.2861V45.236Z" fill="#FFCA28"/>
<path d="M16.5 45.236H18.7142V47.4502H16.5V45.236Z" fill="#FFCA28"/>
<path d="M18.7139 45.236H20.9281V47.4502H18.7139V45.236Z" fill="#FFCA28"/>
<path d="M20.9287 45.236H23.1432V47.4502H20.9287V45.236Z" fill="#FFCA28"/>
<path d="M23.1426 45.236H25.3568V47.4502H23.1426V45.236Z" fill="#FFCA28"/>
<path d="M25.3574 45.236H27.5716V47.4502H25.3574V45.236Z" fill="#FFCA28"/>
<path d="M27.5723 45.236H29.7867V47.4502H27.5723V45.236Z" fill="#FFCA28"/>
<path d="M29.7861 45.236H32.0003V47.4502H29.7861V45.236Z" fill="#FFCA28"/>
<path d="M32 45.236H34.2142V47.4502H32V45.236Z" fill="#FFCA28"/>
<path d="M34.2139 45.236H36.4283V47.4502H34.2139V45.236Z" fill="#FFCA28"/>
<path d="M36.4287 45.236H38.6429V47.4502H36.4287V45.236Z" fill="#FF5722"/>
<path d="M38.6426 45.236H40.8568V47.4502H38.6426V45.236Z" fill="#0E054B"/>
<path d="M40.8574 45.236H43.0719V47.4502H40.8574V45.236Z" fill="#FF5722"/>
<path d="M43.0723 45.236H45.2865V47.4502H43.0723V45.236Z" fill="#FF5722"/>
<path d="M45.2861 45.236H47.5003V47.4502H45.2861V45.236Z" fill="#0E054B"/>
<path d="M5.42871 47.4504H7.64291V49.6646H5.42871V47.4504Z" fill="#0E054B"/>
<path d="M7.64258 47.4504H9.85706V49.6646H7.64258V47.4504Z" fill="#0E054B"/>
<path d="M9.85742 47.4504H12.0716V49.6646H9.85742V47.4504Z" fill="#FF5722"/>
<path d="M12.0713 47.4504H14.2855V49.6646H12.0713V47.4504Z" fill="#FF5722"/>
<path d="M14.2861 47.4504H16.5006V49.6646H14.2861V47.4504Z" fill="#FF5722"/>
<path d="M16.5 47.4504H18.7142V49.6646H16.5V47.4504Z" fill="#FFCA28"/>
<path d="M18.7139 47.4504H20.9281V49.6646H18.7139V47.4504Z" fill="#FFCA28"/>
<path d="M20.9287 47.4504H23.1432V49.6646H20.9287V47.4504Z" fill="#FFCA28"/>
<path d="M23.1426 47.4504H25.3568V49.6646H23.1426V47.4504Z" fill="#FFCA28"/>
<path d="M25.3574 47.4504H27.5716V49.6646H25.3574V47.4504Z" fill="#FFCA28"/>
<path d="M27.5723 47.4504H29.7867V49.6646H27.5723V47.4504Z" fill="#FFCA28"/>
<path d="M29.7861 47.4504H32.0003V49.6646H29.7861V47.4504Z" fill="#FFCA28"/>
<path d="M32 47.4504H34.2142V49.6646H32V47.4504Z" fill="#FFCA28"/>
<path d="M34.2139 47.4504H36.4283V49.6646H34.2139V47.4504Z" fill="#FF5722"/>
<path d="M36.4287 47.4504H38.6429V49.6646H36.4287V47.4504Z" fill="#FF5722"/>
<path d="M38.6426 47.4504H40.8568V49.6646H38.6426V47.4504Z" fill="#FF5722"/>
<path d="M40.8574 47.4504H43.0719V49.6646H40.8574V47.4504Z" fill="#0E054B"/>
<path d="M43.0723 47.4504H45.2865V49.6646H43.0723V47.4504Z" fill="#0E054B"/>
<path d="M9.85742 49.6644H12.0716V51.8789H9.85742V49.6644Z" fill="#0E054B"/>
<path d="M12.0713 49.6644H14.2855V51.8789H12.0713V49.6644Z" fill="#0E054B"/>
<path d="M14.2861 49.6644H16.5006V51.8789H14.2861V49.6644Z" fill="#0E054B"/>
<path d="M16.5 49.6644H18.7142V51.8789H16.5V49.6644Z" fill="#FF5722"/>
<path d="M18.7139 49.6644H20.9281V51.8789H18.7139V49.6644Z" fill="#FF5722"/>
<path d="M20.9287 49.6644H23.1432V51.8789H20.9287V49.6644Z" fill="#FF5722"/>
<path d="M23.1426 49.6644H25.3568V51.8789H23.1426V49.6644Z" fill="#FF5722"/>
<path d="M25.3574 49.6644H27.5716V51.8789H25.3574V49.6644Z" fill="#FF5722"/>
<path d="M27.5723 49.6644H29.7867V51.8789H27.5723V49.6644Z" fill="#FF5722"/>
<path d="M29.7861 49.6644H32.0003V51.8789H29.7861V49.6644Z" fill="#FF5722"/>
<path d="M32 49.6644H34.2142V51.8789H32V49.6644Z" fill="#FF5722"/>
<path d="M34.2139 49.6644H36.4283V51.8789H34.2139V49.6644Z" fill="#0E054B"/>
<path d="M36.4287 49.6644H38.6429V51.8789H36.4287V49.6644Z" fill="#0E054B"/>
<path d="M38.6426 49.6644H40.8568V51.8789H38.6426V49.6644Z" fill="#0E054B"/>
<path d="M14.2861 51.8791H16.5006V54.0933H14.2861V51.8791Z" fill="#0E054B"/>
<path d="M16.5 51.8791H18.7142V54.0933H16.5V51.8791Z" fill="#0E054B"/>
<path d="M18.7139 51.8791H20.9281V54.0933H18.7139V51.8791Z" fill="#0E054B"/>
<path d="M20.9287 51.8791H23.1432V54.0933H20.9287V51.8791Z" fill="#0E054B"/>
<path d="M23.1426 51.8791H25.3568V54.0933H23.1426V51.8791Z" fill="#0E054B"/>
<path d="M25.3574 51.8791H27.5716V54.0933H25.3574V51.8791Z" fill="#0E054B"/>
<path d="M27.5723 51.8791H29.7867V54.0933H27.5723V51.8791Z" fill="#0E054B"/>
<path d="M29.7861 51.8791H32.0003V54.0933H29.7861V51.8791Z" fill="#0E054B"/>
<path d="M32 51.8791H34.2142V54.0933H32V51.8791Z" fill="#0E054B"/>
<path d="M34.2139 51.8791H36.4283V54.0933H34.2139V51.8791Z" fill="#0E054B"/>
<path d="M14.2861 56.3071H16.5006V54.0929H14.2861V56.3071Z" fill="#0E054B"/>
<path d="M16.5 54.0929H18.7142V56.3071H16.5V54.0929Z" fill="#D84315"/>
<path d="M18.7139 56.3071H20.9281V54.0929H18.7139V56.3071Z" fill="#0E054B"/>
<path d="M29.7861 56.3071H32.0003V54.0929H29.7861V56.3071Z" fill="#0E054B"/>
<path d="M32 54.0929H34.2142V56.3071H32V54.0929Z" fill="#D84315"/>
<path d="M34.2139 56.3071H36.4283V54.0929H34.2139V56.3071Z" fill="#0E054B"/>
<path d="M14.2861 56.3075H16.5006V58.522H14.2861V56.3075Z" fill="#0E054B"/>
<path d="M16.5 56.3075H18.7142V58.522H16.5V56.3075Z" fill="#F4511E"/>
<path d="M18.7139 58.522H20.9281V56.3075H18.7139V58.522Z" fill="#0E054B"/>
<path d="M29.7861 56.3075H32.0003V58.522H29.7861V56.3075Z" fill="#0E054B"/>
<path d="M32 56.3075H34.2142V58.522H32V56.3075Z" fill="#F4511E"/>
<path d="M34.2139 58.522H36.4283V56.3075H34.2139V58.522Z" fill="#0E054B"/>
<path d="M12.0713 60.7358H14.2855V58.5216H12.0713V60.7358Z" fill="#0E054B"/>
<path d="M14.2861 60.7358H16.5006V58.5216H14.2861V60.7358Z" fill="#F4511E"/>
<path d="M16.5 58.5216H18.7142V60.7358H16.5V58.5216Z" fill="#F4511E"/>
<path d="M18.7139 60.7358H20.9281V58.5216H18.7139V60.7358Z" fill="#FFAB91"/>
<path d="M20.9287 60.7358H23.1432V58.5216H20.9287V60.7358Z" fill="#0E054B"/>
<path d="M27.5723 60.7358H29.7867V58.5216H27.5723V60.7358Z" fill="#0E054B"/>
<path d="M29.7861 60.7358H32.0003V58.5216H29.7861V60.7358Z" fill="#FFAB91"/>
<path d="M32 58.5216H34.2142V60.7358H32V58.5216Z" fill="#F4511E"/>
<path d="M34.2139 60.7358H36.4283V58.5216H34.2139V60.7358Z" fill="#F4511E"/>
<path d="M36.4287 60.7358H38.6429V58.5216H36.4287V60.7358Z" fill="#0E054B"/>
<path d="M14.2861 62.9502H16.5006V60.736H14.2861V62.9502Z" fill="#0E054B"/>
<path d="M16.5 62.9502H18.7142V60.736H16.5V62.9502Z" fill="#0E054B"/>
<path d="M18.7139 62.9502H20.9281V60.736H18.7139V62.9502Z" fill="#0E054B"/>
<path d="M29.7861 62.9502H32.0003V60.736H29.7861V62.9502Z" fill="#0E054B"/>
<path d="M32 62.9502H34.2142V60.736H32V62.9502Z" fill="#0E054B"/>
<path d="M34.2139 62.9502H36.4283V60.736H34.2139V62.9502Z" fill="#0E054B"/>
</svg>
